<svg xmlns="http://www.w3.org/2000/svg" viewBox="0 0 420 120" role="img" aria-labelledby="title desc">
  <title id="title">Voltia</title>
  <desc id="desc">Logo de Voltia para automatizacion electrica, IoT y gestion inteligente</desc>
  <defs>
    <linearGradient id="volt" x1="0" x2="1" y1="0" y2="1">
      <stop offset="0" stop-color="#ff7a32"/>
      <stop offset="0.52" stop-color="#f2ad3f"/>
      <stop offset="1" stop-color="#25aaa0"/>
    </linearGradient>
  </defs>
  <g fill="none" fill-rule="evenodd">
    <path d="M36 18h58l-21.6 31.8H101L47.8 104l13.7-38.2H30L36 18Z" fill="url(#volt)"/>
    <path d="M36 18h58l-21.6 31.8H101L47.8 104l13.7-38.2H30L36 18Z" stroke="#f6f3ec" stroke-opacity=".28" stroke-width="2"/>
    <path d="M123 33h18.3l22.1 53.2L185.6 33h17.6l-31.7 72h-16.9L123 33Zm103.1 73.1c-7.1 0-13.4-1.6-18.9-4.8a34.9 34.9 0 0 1-13-13.1c-3.1-5.5-4.7-11.7-4.7-18.6 0-7 1.6-13.2 4.7-18.7 3.1-5.5 7.5-9.8 13-13 5.5-3.2 11.8-4.8 18.9-4.8s13.4 1.6 18.9 4.8c5.5 3.2 9.8 7.5 13 13 3.2 5.5 4.8 11.7 4.8 18.7 0 6.9-1.6 13.1-4.8 18.6a34.8 34.8 0 0 1-13 13.1c-5.5 3.2-11.8 4.8-18.9 4.8Zm0-15.3c5.6 0 10.2-2 13.8-5.9 3.6-3.9 5.4-9 5.4-15.3s-1.8-11.4-5.4-15.4c-3.6-3.9-8.2-5.9-13.8-5.9s-10.2 2-13.8 5.9c-3.6 4-5.4 9.1-5.4 15.4s1.8 11.4 5.4 15.3c3.6 3.9 8.2 5.9 13.8 5.9ZM276.8 29h16.4v75h-16.4V29Zm55.4 76c-7.3 0-12.9-1.9-16.8-5.8-3.9-3.9-5.9-9.5-5.9-16.9V49.1h-11.8V35h11.8V17.9h16.4V35h18.9v14.1h-18.9v31.7c0 3.3.8 5.8 2.4 7.4 1.6 1.6 3.9 2.4 6.9 2.4 3.5 0 6.4-.9 8.8-2.8l4.6 13c-2.1 1.5-4.6 2.6-7.5 3.3-2.9.6-5.9.9-8.9.9Zm29.2-70h16.4v70h-16.4V35Zm8.2-11.5c-3 0-5.5-.9-7.4-2.7a8.7 8.7 0 0 1-2.9-6.7c0-2.6 1-4.9 2.9-6.7 1.9-1.8 4.4-2.7 7.4-2.7 3.1 0 5.6.9 7.5 2.6a8.2 8.2 0 0 1 2.9 6.5c0 2.7-1 5-2.9 6.9-1.9 1.9-4.4 2.8-7.5 2.8Zm72.2 11.5v70h-15.6v-9.1c-2.7 3.3-6 5.9-10.1 7.6-4.1 1.7-8.6 2.6-13.5 2.6-6.7 0-12.7-1.5-18-4.5a32 32 0 0 1-12.5-12.8c-3-5.5-4.5-11.9-4.5-19.2 0-7.3 1.5-13.7 4.5-19.2a31.6 31.6 0 0 1 12.5-12.7c5.3-3 11.3-4.5 18-4.5 4.7 0 9 .8 12.9 2.4 3.9 1.6 7.2 4 9.8 7.1V35h16.5Zm-37 55.8c5.6 0 10.2-2 13.8-5.9 3.6-3.9 5.4-9 5.4-15.3s-1.8-11.4-5.4-15.4c-3.6-3.9-8.2-5.9-13.8-5.9s-10.2 2-13.8 5.9c-3.6 4-5.4 9.1-5.4 15.4s1.8 11.4 5.4 15.3c3.6 3.9 8.2 5.9 13.8 5.9Z" fill="#f6f3ec"/>
  </g>
</svg>
